<?xml version="1.0" standalone="no"?>
<!DOCTYPE svg PUBLIC "-//W3C//DTD SVG 20010904//EN"
 "http://www.w3.org/TR/2001/REC-SVG-20010904/DTD/svg10.dtd">
<svg version="1.0" xmlns="http://www.w3.org/2000/svg"
 width="128.000000pt" height="128.000000pt" viewBox="0 0 128.000000 128.000000"
 preserveAspectRatio="xMidYMid meet">
<metadata>
Created by potrace 1.16, written by Peter Selinger 2001-2019
</metadata>
<g transform="translate(0.000000,128.000000) scale(0.100000,-0.100000)"
fill="#000000" stroke="none">
<path d="M0 640 l0 -640 640 0 640 0 0 640 0 640 -640 0 -640 0 0 -640z m1217
448 c9 -12 33 -496 33 -655 l0 -63 -203 0 c-141 0 -207 -4 -215 -12 -16 -16
-368 -16 -384 0 -8 8 -74 12 -215 12 l-203 0 0 48 c-1 148 24 659 33 670 14
18 1140 18 1154 0z m-426 -830 c3 -21 14 -47 24 -58 10 -11 16 -23 13 -26 -14
-13 -189 -23 -272 -14 -48 5 -91 11 -94 14 -2 3 3 17 12 30 9 14 16 30 16 35
0 5 4 21 10 36 l10 26 137 -3 138 -3 6 -37z"/>
<path d="M90 1068 c-4 -34 -30 -551 -30 -595 l0 -63 580 0 580 0 0 63 c0 44
-26 561 -30 595 0 1 -247 2 -550 2 -302 0 -550 -1 -550 -2z m1090 -50 c0 -42
-1 -43 -32 -44 -18 -1 -42 -4 -53 -7 -11 -3 -41 -10 -67 -16 -59 -14 -90 -27
-158 -69 -60 -37 -140 -110 -140 -127 0 -15 -44 -56 -61 -59 -8 -1 -20 -5 -26
-9 -16 -10 -33 -1 -33 17 0 17 71 76 184 154 l89 62 -49 -6 c-27 -3 -68 -9
-91 -15 -24 -5 -64 -11 -90 -14 -27 -3 -59 -9 -73 -14 -14 -5 -46 -14 -71 -21
-39 -10 -49 -19 -76 -63 -17 -29 -45 -65 -61 -80 l-29 -28 -7 32 c-3 18 -1 47
6 65 11 30 10 36 -10 57 -12 13 -31 49 -42 80 -29 82 -25 132 7 105 11 -9 17
-9 24 3 5 8 7 20 4 27 -3 9 86 12 425 12 l430 0 0 -42z m0 -90 c0 -32 -1 -33
-49 -36 -28 -2 -60 -5 -73 -8 -13 -3 -39 -8 -58 -11 -31 -5 -33 -4 -20 10 12
13 168 75 193 76 4 1 7 -14 7 -31z"/>
<path d="M527 1023 c-3 -16 -5 -29 -4 -29 1 -1 20 12 41 27 l39 29 -35 0 c-31
0 -36 -4 -41 -27z"/>
</g>
</svg>
